<svg xmlns="http://www.w3.org/2000/svg" width="16" height="32" viewBox="0 0 16 32">
    <defs>
        <filter id="8mibhrtx6a" width="16" height="32" x="0" y="0" filterUnits="userSpaceOnUse">
            <feOffset dx="-2"/>
            <feGaussianBlur result="blur"/>
            <feFlood flood-color="#fff"/>
            <feComposite in2="blur" operator="in"/>
            <feComposite in="SourceGraphic"/>
        </filter>
    </defs>
    <g filter="url(#8mibhrtx6a)">
        <path fill="#383838" d="M-13.14 32a1.006 1.006 0 0 1-.554-.183.887.887 0 0 1-.111-1.224l11.94-14.355a.435.435 0 0 0 .092-.256.453.453 0 0 0-.092-.274L-13.806 1.372a.929.929 0 0 1-.166-.292.993.993 0 0 1 0-.329 1.159 1.159 0 0 1 .111-.329.9.9 0 0 1 .2-.256.891.891 0 0 1 .3-.146.692.692 0 0 1 .333 0 1.141 1.141 0 0 1 .333 0 .976.976 0 0 1 .259.219L-.5 14.631a2.009 2.009 0 0 1 0 2.648l-11.977 14.41a.885.885 0 0 1-.3.237.9.9 0 0 1-.363.074z" transform="translate(16)"/>
    </g>
</svg>
